<svg xmlns="http://www.w3.org/2000/svg" viewBox="4.909099999999995 72.11099999999999 603.9158969482422 430.7775244010764"> <svg xmlns="http://www.w3.org/2000/svg" xmlns:xlink="http://www.w3.org/1999/xlink" xmlnsSerif="http://www.serif.com/" viewBox="0 0 1000 1000" version="1.1" xml:space="preserve" height="290.7775244010764" width="290.77755906992417" y="142.111" x="74.9091" preserveAspectRatio="xMinYMin" fill-rule="evenodd" clip-rule="evenodd" stroke-linejoin="round" stroke-miterlimit="2" style="overflow: visible;"><rect id="Artboard1" x="0" y="0" width="1000" height="1000" style="fill: none;"></rect><ellipse transform="matrix(0.927344,-0.251691,0.248481,0.939324,-141.774,143.736)" cx="524.113" cy="481.206" rx="231.947" ry="222.017" style="fill: url(#_Radial1);"></ellipse><path transform="matrix(0.927344,-0.251691,0.248481,0.939324,-141.774,143.736)" d="M332.509,356.115C341.863,343.02 352.642,330.931 364.634,320.054C364.77,320.105 364.898,320.132 365.014,320.132C365.701,320.132 365.997,319.653 365.829,318.977C366.517,318.362 367.209,317.751 367.904,317.144C368.381,317.212 368.925,317.308 369.539,317.431C372.441,318.012 374.327,317.833 373.828,317.026C373.338,316.234 374.393,315.966 376.172,316.431C377.951,316.896 379.406,318.128 379.406,319.168C379.406,320.209 380.776,321.163 382.45,321.289C386.558,321.599 393.68,328.944 393.382,332.564C393.227,334.455 394.424,335.665 396.779,336C398.779,336.285 400.415,337.638 400.415,339.008C400.415,340.81 401.309,340.444 403.647,337.683C406.695,334.087 406.98,334.036 408.636,336.803C409.868,338.864 411.915,339.59 415.504,339.24C419.672,338.834 420.524,339.277 420.119,341.649C419.653,344.38 419.808,344.372 422.667,341.513C426.583,337.597 428.168,333.424 426.201,332.209C423.885,330.777 424.306,328.975 427.944,324.755L431.233,320.94L430.951,327.404C430.522,337.191 430.954,339.818 432.8,338.676C433.89,338.003 434.113,339.106 433.433,341.813C431.976,347.62 435.192,347.13 437.843,341.14C440.81,334.437 444.788,334.614 443.432,341.39C442.101,348.046 439.423,351.125 435.931,350.017C434.204,349.469 432.725,350.149 432.1,351.778C431.226,354.055 430.682,354.12 428.272,352.23C425.683,350.2 425.652,350.268 427.877,353.091C430.048,355.848 429.986,356.333 427.256,357.939C416.623,364.197 408.666,375.428 412.011,379.458C412.943,380.581 413.268,382.638 412.735,384.029C412.178,385.48 412.443,386.137 413.359,385.571C414.236,385.03 417.811,386.985 421.303,389.916C426.308,394.119 427.496,396.104 426.918,399.302C426.058,404.055 428.362,408.294 430.939,406.701C431.927,406.091 432.736,403.264 432.736,400.419C432.736,396.939 433.83,394.564 436.081,393.158C438.316,391.762 439.312,389.622 439.081,386.709C438.892,384.311 439.143,381.258 439.641,379.925C440.139,378.592 440.983,375.508 441.516,373.071C442.232,369.803 443.328,368.77 445.695,369.131C450.134,369.808 453.732,375.159 452.67,379.506C451.498,384.303 456.567,386.497 459.514,382.468C461.338,379.973 461.715,380.513 462.689,387.007C463.31,391.148 465.486,396.345 467.656,398.868C469.779,401.337 471.518,404.213 471.519,405.259C471.522,408.23 462.059,412.211 457.261,411.257C453.851,410.579 451.911,411.503 448.088,415.625C443.879,420.163 443.767,420.498 447.236,418.165C451.812,415.088 457.101,414.383 454.255,417.23C453.291,418.194 452.881,420.43 453.343,422.199C454.012,424.757 455.047,425.198 458.405,424.355C463.528,423.069 462.8,423.856 455.361,427.642C450.36,430.188 449.962,430.212 451.922,427.848C454.695,424.506 453.974,424.501 447.319,427.824C444.401,429.28 441.659,431.825 441.226,433.48C440.793,435.135 439.493,436.489 438.335,436.489C435.91,436.489 429.504,446.177 429.504,449.845C429.504,451.203 426.959,454.55 423.848,457.281C418.789,461.722 418.174,463.149 418.022,470.781L417.853,479.314L415.875,472.915C414.099,467.171 413.29,466.457 407.964,465.938C404.556,465.606 402.031,466.077 402.031,467.045C402.031,468.016 400.148,468.362 397.587,467.861C390.856,466.547 387.573,470.021 386.431,479.668C385.683,485.988 386.082,489.092 388.023,492.055C390.994,496.589 396.253,496.192 398.907,491.233C399.799,489.566 401.576,488.203 402.856,488.203C404.687,488.203 404.847,489.088 403.607,492.348C401.105,498.93 401.721,500.881 406.475,501.428C410.451,501.885 410.92,502.584 410.92,508.057C410.92,514.095 413.996,518.078 417.152,516.127C417.999,515.604 418.172,516.016 417.538,517.042C416.904,518.068 416.246,518.85 416.077,518.78C415.907,518.71 414.677,518.232 413.344,517.719L413.343,517.717C410.647,516.678 403.652,509.082 403.649,507.189C403.648,506.522 402.432,505.977 400.946,505.977C399.461,505.977 396.85,504.714 395.144,503.17C393.439,501.627 389.913,500.257 387.31,500.126C380.482,499.783 371.351,493.108 371.337,488.45C371.331,486.365 369.845,482.579 368.035,480.037C366.224,477.494 363.17,471.928 361.248,467.667C359.007,462.701 357.542,460.904 357.165,462.663C356.842,464.172 357.431,467 358.473,468.949C361.328,474.283 363.294,481.957 361.526,480.864C360.694,480.35 360.014,479.027 360.014,477.924C360.014,476.821 359.152,475.057 358.1,474.005C357.047,472.952 355.975,470.807 355.717,469.237C354.024,458.918 352.823,455.554 350.172,453.697C345.071,450.124 343.191,436.729 346.162,425.13C347.559,419.678 348.701,413.744 348.701,411.943C348.701,409.696 349.462,408.961 351.126,409.599C354.59,410.928 354.243,405.496 350.561,400.748C348.917,398.628 347.48,395.803 347.368,394.47C346.912,389.028 345.394,374.088 345.041,371.553C344.832,370.06 343.41,367.514 341.881,365.897C337.728,361.506 334.722,358.357 332.509,356.115ZM425.565,280.196C426.303,280.698 426.344,281.918 425.134,283.128C423.974,284.289 423.07,284.317 422.388,283.213C422.112,282.767 422.052,282.242 422.178,281.754C423.302,281.226 424.431,280.707 425.565,280.196ZM460.216,267.734C460.333,268.224 460.388,269.024 460.461,270.153C461.23,282.095 461.034,283.107 457.492,285.428C452.915,288.427 450.512,288.458 450.512,285.519C450.512,284.26 451.421,282.861 452.532,282.41C454.116,281.767 454.09,281.266 452.413,280.086C450.662,278.855 450.722,278.133 452.74,276.115C454.097,274.759 454.971,273.38 454.684,273.052C454.396,272.724 455.522,271.056 457.185,269.345C457.58,268.939 457.924,268.586 458.223,268.289C458.886,268.102 459.55,267.916 460.216,267.734ZM490.86,261.457C492.763,262.519 494.694,263.953 496.03,265.493C500.127,270.217 499.766,271.574 494.112,272.705C491.427,273.242 488.769,274.427 488.206,275.339C487.618,276.291 487.976,276.505 489.048,275.842C490.074,275.208 490.913,274.999 490.913,275.378C490.913,277.102 476.854,285.161 474.183,284.968C471.989,284.81 471.406,285.578 471.999,287.846C472.545,289.935 471.292,292.135 468.139,294.626C465.571,296.654 463.463,299.179 463.455,300.237C463.431,303.196 461.49,303.544 455.843,301.598C448.821,299.18 447.54,297.557 451.777,296.449C453.728,295.939 454.926,294.877 454.439,294.089C453.952,293.301 454.263,292.657 455.13,292.657C455.998,292.657 457.102,293.566 457.585,294.677C458.068,295.788 458.311,294.515 458.124,291.849C457.826,287.595 458.28,287.037 461.825,287.302C464.047,287.468 465.084,287.268 464.13,286.859C462.105,285.989 463.122,276.496 465.24,276.496C466.028,276.496 466.73,277.769 466.8,279.324C466.877,281.014 467.256,281.339 467.743,280.132C468.191,279.021 469.909,278.112 471.56,278.112C473.211,278.112 475.088,277.261 475.731,276.222C476.518,274.948 476.017,274.67 474.196,275.368C472.709,275.939 469.668,275.712 467.439,274.864C464.173,273.622 463.459,272.351 463.766,268.324C463.811,267.731 463.861,267.209 463.924,266.75C472.708,264.493 481.698,262.718 490.86,261.457ZM752.764,518.681C751.8,516.855 751.096,514.273 751.096,512.336C751.096,503.422 749.186,497.778 746.442,498.581C744.578,499.127 742.728,497.099 740.015,491.537C736.529,484.388 735.911,483.881 732.723,485.56C730.808,486.569 726.261,490.667 722.618,494.667C717.709,500.056 715.962,503.362 715.87,507.436C715.802,510.46 714.719,513.961 713.464,515.216C711.499,517.181 710.684,516.341 707.596,509.163C705.624,504.578 703.479,497.805 702.829,494.111C701.934,489.026 700.98,487.51 698.899,487.87C697.388,488.131 696.151,487.52 696.151,486.512C696.151,482.799 688.872,478.614 682.319,478.56C678.712,478.53 674.379,477.496 672.691,476.262C671.003,475.028 668.639,474.395 667.437,474.856C666.236,475.317 663.122,473.653 660.518,471.158C654.975,465.847 652.611,466.917 655.882,473.257C660.009,481.254 665.835,484.611 667.407,479.895C667.773,478.798 669.835,479.732 672.502,482.205C676.818,486.205 676.885,486.507 674.326,490.412C671.072,495.379 663.485,501.161 655.143,505.033C648.709,508.019 646.145,507.023 646.078,501.513C646.054,499.464 642.824,492.948 641.084,491.435C640.573,490.99 638.058,486.445 635.494,481.334C632.931,476.224 629.895,472.042 628.747,472.042C627.6,472.042 626.661,471.194 626.661,470.157C626.661,469.12 626.271,468.662 625.794,469.138C625.317,469.616 627.135,474.262 629.834,479.464C632.533,484.665 634.741,489.876 634.741,491.043C634.741,493.303 639.193,500.869 642.104,503.555C643.067,504.444 645.059,507.117 646.53,509.496C649.003,513.496 649.645,513.7 655.053,512.207C658.269,511.318 661.25,510.94 661.676,511.367C663.087,512.778 653.948,530.206 650.958,531.806C649.345,532.669 645.841,536.672 643.173,540.701C638.922,547.118 638.495,548.776 639.724,554.071C642.433,565.736 641.626,569.917 635.653,575.161C631.384,578.909 630.135,581.235 630.249,585.223C630.342,588.489 629.405,590.966 627.721,591.909C626.249,592.732 625.045,594.419 625.045,595.658C625.045,599.243 618.52,609.325 614.97,611.225C610.844,613.433 599.227,614.814 599.068,613.115L599.068,613.113C598.641,608.535 597.244,603.76 595.145,599.702C593.814,597.127 592.724,593.254 592.724,591.097C592.724,588.939 591.545,584.358 590.103,580.916C587.874,575.594 587.779,573.502 589.462,566.914C591.796,557.785 590.656,549.909 586.177,544.216C583.853,541.261 583.072,538.156 583.392,533.144C583.778,527.089 583.422,526.214 580.689,526.455C578.959,526.608 576.709,525.592 575.69,524.198C574.365,522.387 572.498,521.975 569.14,522.755C559.958,524.888 549.985,525.166 547.797,523.351C546.581,522.341 543.374,518.3 540.67,514.37C536.606,508.463 535.715,505.504 535.534,497.308C535.286,486.045 538.824,477.077 545.151,472.931C547.318,471.511 549.091,468.835 549.091,466.984C549.091,462.192 555.713,454.885 559.404,455.605C561.076,455.931 563.985,455.453 565.868,454.541C567.751,453.63 572.815,452.549 577.121,452.139C584.723,451.416 584.929,451.51 584.19,455.379C583.59,458.513 584.333,459.751 587.672,461.179C590.006,462.177 593.962,464.385 596.463,466.085C600.998,469.167 601.013,469.166 601.942,465.615C602.702,462.709 603.649,462.244 607.091,463.089C609.411,463.658 615.027,464.533 619.571,465.032C627.685,465.923 627.866,465.848 629.603,460.864C632.224,453.346 630.73,451.171 623.402,451.842C616.606,452.464 614.596,450.996 612.879,444.154C612.267,441.715 611.207,439.719 610.523,439.719C607.95,439.719 605.822,444.058 606.717,447.48C607.227,449.433 607.015,451.026 606.245,451.019C604.717,451.006 600.804,443.423 600.804,440.476C600.804,438.239 588.013,427.732 586.785,428.96C585.64,430.105 592.489,439.719 594.45,439.719C595.279,439.719 595.956,440.447 595.956,441.335C595.956,444.393 592.82,442.939 587.12,437.239C582.725,432.845 580.756,431.863 578.582,432.981C577.027,433.78 574.847,434.109 573.737,433.71C572.626,433.312 571.243,434.319 570.663,435.949C570.083,437.578 568.703,440.002 567.597,441.335C566.49,442.669 565.324,445.182 565.006,446.921C564.406,450.193 558.406,452.565 553.685,451.396C550.403,450.584 549.51,447.147 550.648,439.719C551.48,434.292 551.76,434.085 557.575,434.594C563.237,435.089 563.635,434.832 563.635,430.681C563.635,428.237 562.511,424.995 561.136,423.476C558.852,420.952 558.971,420.631 562.526,419.739C564.665,419.202 568.153,416.205 570.277,413.078C572.402,409.952 575.412,406.982 576.968,406.479C578.911,405.851 579.877,403.703 580.054,399.613C580.303,393.894 580.338,393.86 580.952,398.743C581.432,402.561 582.547,404.007 585.437,404.559C587.552,404.963 590.239,404.688 591.408,403.947C592.576,403.206 596.041,402.589 599.108,402.575C603.444,402.557 604.252,402.119 602.744,400.611C599.841,397.708 600.261,392.747 603.31,393.917C605.325,394.69 605.608,394.047 604.751,390.634C603.805,386.865 604.158,386.39 607.901,386.39C610.22,386.39 612.117,385.608 612.117,384.652C612.117,383.696 610.117,383.046 607.672,383.207C605.228,383.368 602.319,383.423 601.208,383.329C598.401,383.091 598.683,375.893 601.732,369.999C603.131,367.294 603.889,364.695 603.417,364.223C601.671,362.477 597.572,365.381 597.572,368.365C597.572,370.061 596.513,372.329 595.218,373.404C593.773,374.603 592.861,378.27 592.859,382.894C592.852,394.058 592.424,396.768 590.46,398.081C588.008,399.721 586.26,399.607 586.26,397.807C586.26,396.976 585.506,394.312 584.584,391.888C583.31,388.537 582.457,387.93 581.029,389.358C577.64,392.747 575.388,391.338 574.347,385.177C573.478,380.035 573.932,378.581 577.345,375.578C579.557,373.631 583.087,368.15 585.189,363.396C588.857,355.102 593.173,349.517 599.903,344.355C602.687,342.22 602.888,342.222 601.686,344.374C600.623,346.274 600.773,346.389 602.38,344.904C604.576,342.875 609.41,343.833 608.053,346.027C607.606,346.751 609.61,347.849 612.507,348.469C620.311,350.138 626.661,354.352 626.661,357.862C626.661,360.497 625.82,360.82 621.005,360.039C617.894,359.534 615.349,359.803 615.349,360.636C615.349,361.469 616.076,362.15 616.965,362.15C617.854,362.15 618.581,363.527 618.581,365.209C618.581,366.892 619.731,368.71 621.137,369.25C625.052,370.752 625.616,370.442 623.535,367.934C621.97,366.048 622.228,365.793 624.977,366.512C627.613,367.202 628.104,366.81 627.283,364.673C626.555,362.774 627.253,361.693 629.609,361.077C632.41,360.344 632.815,359.341 632.011,355.113C631.449,352.157 631.65,350.593 632.489,351.377C633.284,352.117 633.934,353.511 633.934,354.474C633.934,357.965 637.46,357.291 639.202,353.468C640.342,350.965 642.34,349.548 644.732,349.545C651.453,349.533 654.946,348.084 654.718,345.396C654.431,342.024 658.796,341.999 663.575,345.347C668.033,348.469 670.782,346.677 666.424,343.491C662.201,340.403 660.542,324.982 664.433,324.982C665.895,324.982 667.062,326.283 667.062,327.911C667.062,329.523 668.88,334.61 671.102,339.216C675.863,349.084 675.985,350.206 672.511,352.151C670.564,353.24 670.391,353.939 671.844,354.837C674.736,356.625 677.297,353.254 677.297,347.66C677.297,342.013 677.941,341.663 681.114,345.586C683.178,348.139 683.229,348.06 681.639,344.778C680.67,342.778 678.448,341.142 676.702,341.142C674.636,341.142 673.527,340.046 673.527,338.006C673.527,336.28 672.799,334.419 671.91,333.87C671.022,333.321 670.317,331.642 670.344,330.139C670.386,327.632 670.529,327.64 672.04,330.234C672.946,331.789 674.881,333.062 676.34,333.062C678.579,333.062 678.504,332.692 675.855,330.689C673.921,329.226 673.529,328.297 674.834,328.265C675.997,328.235 676.5,327.487 675.951,326.598C675.401,325.709 675.54,325.005 676.259,325.033C678.346,325.115 682.49,328.745 684.503,332.254C686.084,335.011 686.364,335.078 686.405,332.714C686.43,331.189 684.189,327.624 681.419,324.791L676.384,319.64L680.204,317.595C680.338,317.524 680.468,317.452 680.593,317.38C726.961,357.986 756.06,416.369 756.06,481.206C756.06,489.697 755.561,498.078 754.589,506.322C754.198,506.107 753.896,505.988 753.712,505.987C752.263,505.98 752.495,510.013 753.528,514.091C753.29,515.626 753.035,517.156 752.764,518.681ZM750.303,530.537C750.194,530.403 750.085,530.27 749.976,530.141C747.704,527.441 746.191,524.888 746.613,524.466C747.029,524.051 748.875,525.227 751.104,527.033C750.847,528.204 750.58,529.373 750.303,530.537ZM411.727,299.215C411.727,298.422 412.636,297.407 413.747,296.959C414.858,296.511 414.131,296.086 412.131,296.016C407.763,295.863 407.663,295.281 411.278,291.059C414.786,286.963 416.575,286.924 416.575,290.945C416.575,295.687 419.635,296.594 421.335,292.356C422.456,289.56 422.86,289.33 422.937,291.445C422.992,293 423.923,294.273 425.002,294.273C426.345,294.273 426.217,294.973 424.598,296.491C421.77,299.142 411.727,301.267 411.727,299.215ZM431.561,299.086C431.426,297.289 431.999,296.241 432.834,296.757C433.669,297.273 434.352,296.416 434.352,294.853C434.352,292.797 434.84,292.499 436.118,293.776C437.395,295.053 437.379,296.484 436.063,298.947C433.76,303.249 431.881,303.307 431.563,299.086L431.561,299.086ZM590.3,297.505C590.849,296.616 590.528,295.889 589.587,295.889C588.646,295.889 587.876,295.309 587.876,294.602C587.876,293.894 589.876,293.348 592.32,293.39C594.764,293.431 596.582,294.01 596.36,294.677C596.138,295.343 595.956,296.616 595.956,297.505C595.956,298.394 594.459,299.121 592.629,299.121C590.799,299.121 589.751,298.394 590.3,297.505ZM620.197,287.808C620.197,286.815 619.288,286.525 618.177,287.164C617.066,287.804 616.723,287.704 617.416,286.943C619.14,285.048 623.429,284.546 623.429,286.24C623.429,286.998 622.702,288.067 621.813,288.616C620.924,289.166 620.197,288.802 620.197,287.808ZM447.521,310.217C442.413,308.73 442.165,308.324 443.15,303.072C443.799,299.611 443.556,297.505 442.505,297.505C441.576,297.505 440.816,296.287 440.816,294.798C440.816,292.411 441.171,292.459 443.815,295.202C445.464,296.913 446.522,299.105 446.165,300.074C445.287,302.461 448.831,305.155 453.744,305.834C458.089,306.435 459.392,310.999 455.36,311.495C454.027,311.659 450.499,311.084 447.521,310.217ZM444.048,284.481C444.048,282.651 444.775,281.603 445.664,282.152C446.553,282.702 447.28,284.199 447.28,285.48C447.28,286.761 446.553,287.808 445.664,287.808C444.775,287.808 444.048,286.311 444.048,284.481ZM437.974,282.99C436.564,280.728 436.493,279.728 437.743,279.728C438.735,279.728 439.127,278.637 438.616,277.304C438.104,275.971 438.413,274.88 439.302,274.88C441.796,274.88 443.006,279.549 441.427,283.079C440.024,286.216 439.986,286.215 437.974,282.99ZM592.078,307.847C591.502,306.349 591.396,304.759 591.84,304.314C592.285,303.87 593.119,304.733 593.694,306.231C594.269,307.73 594.376,309.32 593.931,309.764C593.487,310.209 592.653,309.346 592.078,307.847ZM449.491,674.88C447.818,670.522 449.706,668.861 452.643,672.106C455.195,674.926 455.227,675.367 452.945,676.243C451.469,676.809 450.01,676.23 449.491,674.88ZM440.116,663.532C438.438,660.416 437.519,657.411 438.075,656.855C438.631,656.299 438.383,654.53 437.523,652.923C436.502,651.016 436.522,649.653 437.578,649C439.648,647.72 439.704,637.322 437.644,636.607C435.705,635.935 435.537,629.001 436.786,601.065L437.773,578.99L431.96,574.4C428.515,571.681 424.435,566.025 421.947,560.519C419.637,555.408 417.084,551.226 416.272,551.226C413.43,551.226 416.501,536.159 420.13,532.296C423.285,528.938 423.492,527.803 421.982,522.146C421.047,518.643 420.939,516.184 421.743,516.68C422.546,517.177 425.053,515.586 427.315,513.146C430.378,509.841 431.753,509.238 432.707,510.783C433.412,511.923 434.797,512.356 435.785,511.745C436.773,511.134 438.491,511.21 439.602,511.914C440.713,512.617 443.506,513.279 445.809,513.384C448.112,513.489 452.35,515.683 455.226,518.26C458.103,520.837 462.393,523.315 464.76,523.767C469.922,524.752 474.375,532.432 471.673,535.688C470.342,537.292 471.022,537.759 474.69,537.759C477.295,537.759 480.637,538.764 482.116,539.991C483.594,541.218 486.637,542.468 488.877,542.768C493.907,543.441 500.207,547.861 501.476,551.606C502.045,553.286 500.766,556.585 498.284,559.838C496.007,562.825 494.139,567.381 494.134,569.963C494.116,578.389 491,586.779 487.885,586.779C484.069,586.779 477.983,593.414 477.983,597.574C477.983,599.397 476.528,602.737 474.751,604.997C472.973,607.257 471.519,610.175 471.519,611.481C471.519,614.887 467.536,617.715 464.421,616.52C462.205,615.669 461.998,616.136 463.176,619.32C465.136,624.614 463.859,627.18 459.264,627.18C456.436,627.18 455.358,628.072 455.358,630.412C455.358,632.226 454.281,633.645 452.903,633.645C451.072,633.645 450.714,634.703 451.494,637.809C452.092,640.195 451.62,643.691 450.387,645.994C448.613,649.31 448.608,650.245 450.357,651.327C452.085,652.395 452.104,653.799 450.458,658.898C449.346,662.341 448.199,666.066 447.908,667.177C446.917,670.962 443.171,669.21 440.113,663.532L440.116,663.532ZM717.184,518.501C717.202,515.561 717.509,515.329 718.776,517.289C720.8,520.422 720.8,522.137 718.776,522.137C717.887,522.137 717.171,520.501 717.184,518.501ZM646.688,590.95C646.148,589.541 646.265,586.39 646.951,583.947C647.636,581.505 648.047,578.604 647.865,577.501C647.683,576.397 650.11,572.919 653.258,569.771C658.606,564.423 658.978,564.289 658.925,567.737C658.836,573.432 651.958,592.158 649.691,592.874C648.58,593.225 647.229,592.359 646.688,590.95ZM432.083,493.678C431.532,492.244 432.337,491.433 434.307,491.433C438.575,491.433 439.85,494.118 436.054,495.11C434.264,495.578 432.579,494.971 432.083,493.678ZM422.441,488.971C421.67,486.963 422.085,486.825 424.692,488.22C428.438,490.225 428.793,491.433 425.636,491.433C424.398,491.433 422.96,490.325 422.441,488.971ZM414.959,484.968C413.626,484.107 413.262,483.402 414.151,483.402C415.04,483.402 416.858,484.107 418.191,484.968C419.525,485.83 419.888,486.535 418.999,486.535C418.111,486.535 416.293,485.83 414.959,484.968ZM530.97,366.995C530.578,364.328 530.859,362.146 531.594,362.146C532.329,362.146 532.93,362.856 532.93,363.723C532.93,364.747 534.382,364.747 537.076,363.723C542.314,361.731 542.111,361.704 543.193,364.524C544.42,367.721 540.044,371.843 535.423,371.843C532.501,371.843 531.525,370.78 530.97,366.995ZM549.66,407.889C549.901,404.949 552.833,400.934 554.739,400.934C555.306,400.934 555.54,402.928 555.258,405.364C554.684,410.341 549.258,412.787 549.66,407.889ZM450.512,345.986C450.512,345.097 451.282,344.37 452.224,344.37C453.165,344.37 453.486,345.097 452.936,345.986C452.387,346.875 451.617,347.602 451.225,347.602C450.833,347.602 450.512,346.875 450.512,345.986ZM456.805,369.685C455.381,368.643 453.696,366.157 453.063,364.16C452.274,361.677 450.638,360.53 447.884,360.53C445.611,360.53 444.292,359.827 444.856,358.914C445.405,358.026 446.968,357.298 448.328,357.298C450.97,357.298 456.833,351.165 456.923,348.31C456.992,346.094 450.708,333.058 449.571,333.058C449.095,333.058 449.155,333.785 449.704,334.674C451.056,336.861 450.048,336.724 442.465,333.69C438.891,332.26 435.968,330.4 435.968,329.555C435.968,328.71 436.695,328.468 437.584,329.018C438.473,329.567 439.2,329.307 439.2,328.44C439.2,327.573 438.478,326.621 437.596,326.325C435.115,325.491 442.036,315.282 445.083,315.282C447.594,315.282 447.596,315.486 445.107,318.237C443.636,319.862 442.434,322.953 442.435,325.105C442.437,328.618 442.727,328.45 445.263,323.458C448.859,316.383 452.931,314.675 451.774,320.727C450.959,324.991 454.026,326.83 456.169,323.362C456.718,322.473 456.397,321.746 455.456,321.746C454.515,321.746 453.745,321.019 453.745,320.13C453.745,319.241 454.882,318.514 456.271,318.514C457.708,318.514 458.672,319.732 458.509,321.342C457.83,328.011 458.715,331.442 461.113,331.442C462.498,331.442 463.183,332.169 462.633,333.058C462.084,333.947 462.482,334.674 463.519,334.674C464.555,334.674 465.003,335.718 464.513,336.994C464.023,338.27 464.489,339.633 465.552,340.024C467.046,340.574 467.046,341.197 465.554,342.782C464.048,344.383 464.462,345.928 467.45,349.853C470.698,354.119 470.959,355.303 469.184,357.723C467.22,360.4 466.94,360.351 464.544,356.915C462.496,353.978 461.977,353.794 461.909,355.982C461.86,357.479 462.524,360.544 463.379,362.792C464.925,366.859 463.037,370.263 461.033,367.021C460.475,366.118 459.245,365.379 458.3,365.379C457.228,365.379 457.351,366.306 458.625,367.842C461.258,371.014 460.153,372.132 456.805,369.685ZM469.501,420.785C464.816,420.076 464.278,419.208 466.423,415.828C468.173,413.068 472.612,414.911 473.634,418.822C474.083,420.539 474.337,421.834 474.197,421.7C474.058,421.567 471.945,421.156 469.501,420.785ZM642.822,337.906C642.822,337.017 641.682,336.29 640.288,336.29C638.407,336.29 638.048,335.367 638.895,332.699C639.522,330.724 640.2,326.179 640.402,322.599C640.674,317.767 642.179,314.546 646.239,310.104C655.061,300.451 657.579,302.99 649.463,313.356C643.484,320.994 641.696,330.292 645.184,335.615C647.449,339.071 647.46,339.522 645.283,339.522C643.929,339.522 642.821,338.795 642.822,337.906ZM420.528,336.149C419.931,335.183 420.252,333.583 421.241,332.594C422.562,331.273 423.039,331.74 423.039,334.351C423.039,338.252 422.2,338.854 420.528,336.149ZM409.272,331.392C408.675,330.426 405.92,330.162 402.713,330.764C398.276,331.596 397.183,331.287 397.183,329.197C397.183,327.765 396.456,326.594 395.567,326.594C394.678,326.594 393.951,325.424 393.951,323.994C393.951,322.003 394.932,321.641 398.149,322.449C401.156,323.203 402.154,322.921 401.665,321.456C401.29,320.331 399.219,318.989 397.063,318.474C393.259,317.565 393.238,317.482 396.375,315.65C398.152,314.613 398.698,313.741 397.587,313.714C394.089,313.629 395.388,310.633 400.011,308.125C402.632,306.703 403.42,305.688 401.932,305.65C400.544,305.614 397.847,307.039 395.939,308.817C388.06,316.158 385.762,309.923 393.373,301.856C398.279,296.655 399.332,296.188 402.209,297.94C404.638,299.419 405.328,301.247 404.899,305.068C404.582,307.894 404.887,309.857 405.58,309.429C407.835,308.035 411.258,312.678 410.455,316.042C409.92,318.282 410.203,318.809 411.35,317.705C412.274,316.816 413.325,314.635 413.686,312.857C414.048,311.079 415.209,309.807 416.267,310.029C417.326,310.251 418.191,309.585 418.191,308.548C418.191,307.511 418.558,307.029 419.006,307.477C419.455,307.926 418.647,310.646 417.212,313.523C415.59,316.775 414.97,320.589 415.575,323.611C416.81,329.787 411.972,335.76 409.272,331.392ZM491.305,378.659C488.819,376.745 487.383,373.537 486.8,368.594C486.33,364.604 485.717,359.884 485.437,358.106C484.823,354.199 485.978,350.589 487.534,351.551C488.156,351.935 489.453,350.16 490.417,347.606C491.822,343.885 491.708,342.784 489.842,342.068C488.545,341.571 487.951,341.883 488.501,342.772C489.044,343.651 488.718,344.37 487.777,344.37C485.191,344.37 485.726,341.167 488.489,340.106C491.619,338.905 491.646,334.674 488.526,334.674C486.584,334.674 486.471,333.94 487.92,330.759C490.004,326.186 488.478,313.096 485.584,310.72C484.516,309.844 481.894,308.875 479.756,308.568C477.151,308.193 475.684,306.777 475.307,304.275C474.998,302.221 475.325,300.9 476.039,301.34C476.751,301.78 478.389,301.472 479.68,300.655C481.66,299.402 481.612,299.166 479.372,299.146C477.192,299.125 474.755,296.095 474.755,293.406C474.755,293.074 477.32,292.322 480.455,291.734C485.818,290.728 491.909,284.576 487.542,284.576C486.188,284.576 486.227,283.907 487.683,282.152C488.79,280.819 490.72,279.728 491.972,279.728C493.224,279.728 494.648,278.688 495.136,277.417C495.624,276.146 498.077,274.39 500.588,273.514C504.482,272.157 505.274,272.378 505.964,275.017C506.977,278.892 510.27,279.089 510.417,275.284C510.504,273.032 510.884,273.197 512.28,276.092C514.439,280.569 516.773,280.89 515.639,276.554C514.795,273.327 519.309,267.182 521.162,269.035C521.714,269.587 523.412,268.911 524.935,267.533C527.874,264.873 535.28,265.677 537.253,268.87C537.913,269.938 537.302,270.193 535.621,269.549C531.158,267.837 532.599,269.777 537.78,272.456C544.357,275.857 543.877,278.107 536.568,278.137C533.235,278.15 529.417,278.877 528.084,279.751C526.378,280.869 527.289,281.027 531.164,280.282C535.474,279.453 536.383,279.684 535.355,281.347C534.377,282.929 534.93,283.237 537.528,282.558C541.752,281.454 541.912,282.479 538.184,286.769C535.612,289.731 535.907,289.692 541.458,286.336C544.821,284.301 548.727,283.094 550.162,283.645C552.515,284.548 552.49,284.947 549.905,287.804C548.332,289.542 546.302,290.506 545.395,289.945C544.428,289.347 544.241,289.727 544.942,290.862C545.601,291.927 544.887,294.706 543.362,297.038C541.834,299.369 540.513,304.004 540.425,307.336C540.338,310.668 539.757,313.08 539.135,312.696C536.937,311.337 535.913,315.456 537.864,317.806C539.45,319.717 539.309,320.779 537.156,323.158C535.457,325.036 534.893,327.25 535.62,329.188C536.593,331.779 536.39,331.942 534.298,330.244C532.939,329.14 531.348,328.716 530.764,329.301C529.19,330.874 529.473,336.29 531.128,336.29C532.669,336.29 534.875,342.966 533.716,344.124C533.329,344.511 531.578,343.089 529.824,340.963L526.635,337.098L527.614,340.987C528.356,343.933 528.08,344.558 526.473,343.565C525.068,342.697 524.742,342.884 525.506,344.12C526.14,345.146 527.819,345.986 529.238,345.986C531.484,345.986 531.439,346.403 528.892,349.218C527.283,350.996 524.592,352.45 522.912,352.45C521.232,352.45 517.979,354.328 515.684,356.623C513.389,358.918 510.147,361.058 508.48,361.379C504.176,362.208 502.227,363.641 502.227,365.978C502.227,367.869 496.127,381.582 495.321,381.503C495.12,381.485 493.313,380.203 491.306,378.658L491.305,378.659ZM531.314,270.083C531.314,269.222 530.224,268.936 528.89,269.448C527.557,269.959 526.466,270.664 526.466,271.013C526.466,271.362 527.557,271.648 528.89,271.648C530.224,271.648 531.314,270.944 531.314,270.083ZM543.435,294.273C543.984,293.384 543.663,292.657 542.722,292.657C541.781,292.657 541.011,293.384 541.011,294.273C541.011,295.161 541.331,295.889 541.723,295.889C542.115,295.889 542.885,295.161 543.435,294.273ZM431.247,318.418C431.032,314.157 435.202,309.793 438.34,310.998C440.652,311.885 440.809,312.534 439.184,314.492C438.086,315.815 436.247,316.897 435.097,316.897C433.946,316.897 432.638,317.806 432.19,318.917C431.651,320.253 431.332,320.084 431.247,318.418ZM585.353,313.517C583.342,310.849 583.339,308.873 585.34,305.714C586.437,303.982 586.14,303.67 584.128,304.442C581.793,305.338 578.181,301.679 578.181,298.419C578.181,296.608 582.779,297.551 583.575,299.525C584.024,300.636 584.448,300.11 584.518,298.357C584.645,295.184 584.656,295.184 586.848,298.357C589.617,302.364 588.152,317.23 585.354,313.517L585.353,313.517ZM436.91,305.802C436.214,304.675 436.081,303.317 436.614,302.784C438.061,301.338 439.638,303.465 438.856,305.808C438.309,307.451 437.928,307.449 436.91,305.802ZM423.04,320.262C423.04,319.445 422.595,317.619 422.052,316.203C421.3,314.244 421.753,313.893 423.948,314.735C426.204,315.601 426.601,315.239 425.771,313.077C425.104,311.337 425.625,309.959 427.177,309.364C430.354,308.145 431.813,309.627 430.112,312.346C429.38,313.516 428.691,315.2 428.58,316.089C428.47,316.978 428.269,318.614 428.134,319.725C427.854,322.026 423.04,322.533 423.04,320.262ZM431.144,361.258C431.181,356.235 433.47,353.451 435.455,356.01C439.189,360.826 439.777,362.714 437.238,361.739C435.867,361.213 433.93,361.599 432.933,362.596C431.593,363.936 431.126,363.587 431.144,361.258ZM579.796,442.951C579.796,442.062 580.523,441.335 581.412,441.335C582.301,441.335 583.028,442.062 583.028,442.951C583.028,443.84 582.301,444.567 581.412,444.567C580.523,444.567 579.796,443.84 579.796,442.951ZM559.589,409.464C559.871,406.433 559.136,402.093 557.956,399.819C555.312,394.723 556.39,390.392 559.571,393.33C560.731,394.401 561.363,395.803 560.974,396.444C560.255,397.634 564.923,405.827 567.289,407.527C569.603,409.191 566.763,413.506 562.864,414.251C559.419,414.909 559.123,414.477 559.589,409.464ZM347.372,404.022C346.202,402.149 345.556,400.306 345.935,399.927C347.056,398.806 350.674,403.904 350.061,405.741C349.752,406.669 348.542,405.895 347.372,404.022ZM619.384,440.409C621.801,438.584 624.746,438.237 631.101,439.031C638.041,439.898 639.589,439.649 639.589,437.667C639.589,436.334 637.707,434.01 635.407,432.502C632.171,430.382 631.445,428.882 632.2,425.876C633.119,422.214 632.936,422.098 629.048,423.87C626.689,424.945 625.271,426.666 625.74,427.887C626.191,429.062 625.933,430.023 625.167,430.023C624.401,430.023 623.356,428.932 622.844,427.599C620.592,421.729 615.748,427.363 614.471,437.337C613.68,443.512 614.555,444.059 619.384,440.409Z" style="fill: url(#_Radial2);"></path><path transform="matrix(0.927344,-0.251691,0.248481,0.939324,-141.774,143.736)" d="M292.212,476.814C292.182,476.609 292.167,476.406 292.167,476.206C292.167,476.033 292.191,475.865 292.237,475.707C292.939,448.107 298.915,421.747 309.237,397.518C309.285,397.316 309.367,397.127 309.477,396.958C344.167,316.158 427.234,259.188 524.113,259.188C618.069,259.188 699.033,312.771 735.478,389.708C736.612,392.102 740.946,402.225 741.862,404.608C749.891,425.487 754.733,447.835 755.824,471.11C755.896,472.638 756.06,479.738 756.06,481.206C756.06,506.967 751.466,531.71 743.019,554.725C742.944,555.509 740.656,560.895 739.885,562.761C722.053,605.902 690.499,642.44 650.384,667.428C650.32,667.903 639.778,674.676 620.964,682.973C591.485,695.971 558.678,703.223 524.113,703.223C482.211,703.223 442.892,692.565 408.954,673.931C405.271,672.261 398.44,668.124 398.316,667.721C334.454,628.152 292.167,559.361 292.167,481.206C292.167,479.738 292.182,478.274 292.212,476.814ZM311.254,402.057C301.819,425.229 296.403,450.317 295.828,476.537C295.978,477.025 296.45,477.482 297.073,478.006C298.88,479.527 302.017,481.04 306.321,482.581C315.922,486.018 331.089,489.42 350.543,492.466C350.397,488.736 350.323,484.982 350.323,481.206C350.323,457.981 353.12,435.591 358.306,414.553C342.187,412.356 329.54,409.837 321.297,407.099C316.777,405.598 313.519,403.996 311.621,402.384C311.493,402.276 311.371,402.167 311.254,402.057ZM477.038,267.453C458.455,271.185 440.7,277.081 424.074,284.852C424.279,285.037 424.536,285.217 424.84,285.399C426.618,286.47 429.676,287.456 433.8,288.397C434.819,288.63 435.901,288.858 437.042,289.081C449.484,279.851 462.899,272.536 477.038,267.453ZM420.732,286.447C395.632,298.671 373.203,315.206 354.514,335.029C354.696,335.132 354.896,335.237 355.094,335.322C356.498,335.926 358.578,336.504 361.274,337.072C367.65,338.417 377.308,339.654 389.579,340.74C401.883,321.54 416.653,305.019 433.263,291.967C430.633,291.379 428.398,290.763 426.599,290.124C424.278,289.3 422.615,288.402 421.641,287.517C421.257,287.168 420.957,286.81 420.732,286.447ZM351.996,337.744C335.714,355.597 322.415,376.004 312.847,398.25C312.933,398.521 313.12,398.783 313.362,399.057C313.925,399.696 314.776,400.309 315.877,400.929C319.709,403.087 326.286,405.109 335.172,407.004C341.93,408.446 349.996,409.8 359.195,411.048C365.58,386.581 375.212,364.007 387.432,344.158C375.831,343.097 366.667,341.898 360.529,340.604C356.298,339.712 353.412,338.712 351.996,337.744ZM735.379,398.25C725.812,376.004 712.513,355.597 696.231,337.744C694.815,338.712 691.929,339.712 687.697,340.604C681.56,341.898 672.395,343.097 660.795,344.158C673.015,364.007 682.646,386.581 689.032,411.048C698.231,409.8 706.297,408.446 713.054,407.004C721.941,405.109 728.517,403.087 732.35,400.929C733.45,400.309 734.301,399.696 734.865,399.057C735.107,398.783 735.294,398.521 735.379,398.25ZM693.713,335.029C675.024,315.206 652.595,298.671 627.494,286.446C627.27,286.81 626.97,287.168 626.586,287.517C625.611,288.402 623.949,289.3 621.628,290.124C619.829,290.763 617.594,291.379 614.964,291.967C631.574,305.019 646.343,321.54 658.648,340.74C670.919,339.654 680.577,338.417 686.953,337.072C689.649,336.504 691.729,335.926 693.133,335.322C693.331,335.237 693.531,335.132 693.713,335.029ZM624.153,284.852C607.527,277.081 589.772,271.185 571.189,267.453C585.328,272.536 598.743,279.851 611.185,289.081C612.326,288.858 613.408,288.63 614.427,288.397C618.551,287.456 621.609,286.47 623.387,285.399C623.69,285.217 623.948,285.037 624.153,284.852ZM752.399,476.537C751.823,450.317 746.408,425.229 736.973,402.057C736.856,402.167 736.734,402.276 736.606,402.384C734.708,403.996 731.45,405.598 726.93,407.099C718.687,409.837 706.04,412.356 689.921,414.553C695.107,435.591 697.904,457.981 697.904,481.206C697.904,484.982 697.83,488.736 697.684,492.466C717.138,489.42 732.304,486.018 741.906,482.581C746.21,481.04 749.347,479.527 751.154,478.006C751.777,477.482 752.249,477.025 752.399,476.537ZM739.634,553.478C747.897,530.957 752.409,506.753 752.45,481.552C750.355,483.015 747.223,484.511 743.123,485.979C733.281,489.502 717.626,492.998 697.517,496.119C696.131,522.762 691.059,548.117 682.949,571.366C696.189,569.292 707.53,567.032 716.57,564.694C725.622,562.353 732.322,559.959 736.226,557.576C737.365,556.881 738.244,556.203 738.827,555.519C738.856,555.485 738.883,555.452 738.91,555.419C739.1,554.917 739.288,554.414 739.474,553.911C739.509,553.758 739.563,553.613 739.634,553.478ZM632.821,673.285C654.849,661.846 674.694,647.042 691.599,629.595C682.121,633.072 665.823,637.252 644.688,641.011C631.015,657.85 615.192,671.854 597.806,682.285C612.143,679.866 623.814,676.766 632.821,673.285ZM699.787,620.673C715.068,603.087 727.52,583.173 736.472,561.573C734.883,562.408 732.994,563.245 730.815,564.073C720.542,567.977 703.547,571.849 681.572,575.214C673.164,598.128 661.78,618.908 648.062,636.743C667.167,633.193 681.901,629.341 690.625,626.107C693.923,624.884 696.323,623.774 697.709,622.795C698.013,622.58 698.337,622.26 698.45,622.145C698.561,621.428 699.094,620.85 699.787,620.673ZM571.189,694.958C584.701,692.245 597.774,688.388 610.295,683.497C603.819,684.91 596.682,686.175 588.883,687.252C583.13,690.211 577.225,692.788 571.189,694.958ZM436.781,683.044C449.65,688.15 463.112,692.162 477.038,694.958C470.961,692.774 465.019,690.177 459.229,687.193C450.99,686.02 443.527,684.623 436.781,683.044ZM295.777,481.552C295.817,506.432 300.215,530.34 308.28,552.617C309.529,556.069 311.529,556.881 312.667,557.576C316.571,559.959 323.271,562.353 332.324,564.694C341.202,566.99 352.301,569.211 365.239,571.255C357.152,548.037 352.094,522.719 350.71,496.119C330.601,492.998 314.946,489.502 305.104,485.979C301.004,484.511 297.872,483.015 295.777,481.552ZM311.561,561.104C320.195,582.08 332.127,601.473 346.744,618.698C347.296,619.348 350.349,622.58 350.653,622.795C352.038,623.774 354.438,624.884 357.737,626.107C366.436,629.332 381.114,633.172 400.142,636.713C386.413,618.857 375.022,598.05 366.615,575.105C344.982,571.766 328.241,567.935 318.078,564.073C315.492,563.09 313.313,562.094 311.561,561.104ZM356.553,629.517C372.255,645.738 390.496,659.678 410.669,670.755C420.606,675.247 433.547,679.181 450.138,682.116C432.854,671.697 417.12,657.743 403.516,640.983C382.301,637.203 365.976,633.002 356.553,629.517ZM361.895,415.029C356.723,435.911 353.932,458.147 353.932,481.206C353.932,485.17 354.015,489.111 354.178,493.024C373.383,495.909 396.478,498.447 422.328,500.352C422.081,494.042 421.954,487.656 421.954,481.206C421.954,460.215 423.292,439.904 425.79,420.658C401.356,419.247 379.678,417.327 361.895,415.029ZM501.207,264.76C479.937,268.434 459.917,277.154 441.899,289.944C449.448,291.168 458.904,292.216 469.75,293.027C479.294,280.008 489.904,270.354 501.207,264.76ZM437.87,292.897C421.039,305.627 406.066,321.967 393.595,341.082C407.581,342.229 424.593,343.189 443.76,343.902C449.408,328.274 455.994,314.353 463.329,302.552C464.636,300.448 465.968,298.411 467.323,296.443C455.589,295.512 445.548,294.302 437.87,292.897ZM391.405,344.508C379.003,364.312 369.238,386.945 362.789,411.522C380.467,413.795 402.003,415.69 426.269,417.082C429.785,391.642 435.336,368.13 442.501,347.458C422.879,346.712 405.535,345.707 391.405,344.508ZM685.437,411.522C678.989,386.945 669.223,364.312 656.822,344.508C642.692,345.707 625.348,346.712 605.726,347.458C612.891,368.13 618.442,391.642 621.958,417.082C646.224,415.69 667.76,413.795 685.437,411.522ZM654.632,341.082C642.161,321.967 627.187,305.627 610.356,292.897C602.679,294.302 592.637,295.512 580.904,296.443C582.259,298.411 583.591,300.448 584.898,302.552C592.233,314.353 598.819,328.274 604.467,343.902C623.634,343.189 640.646,342.229 654.632,341.082ZM606.327,289.944C588.309,277.154 568.29,268.434 547.02,264.76C558.323,270.354 568.933,280.008 578.477,293.027C589.323,292.216 598.779,291.168 606.327,289.944ZM694.049,493.024C694.212,489.111 694.295,485.17 694.295,481.206C694.295,458.147 691.504,435.911 686.332,415.029C668.549,417.327 646.871,419.247 622.437,420.658C624.935,439.904 626.273,460.215 626.273,481.206C626.273,487.656 626.146,494.042 625.899,500.352C651.749,498.447 674.844,495.909 694.049,493.024ZM678.928,571.981C687.211,548.766 692.415,523.374 693.874,496.673C674.606,499.545 651.527,502.071 625.743,503.968C624.499,530.583 621.097,555.807 615.931,578.788C639.568,577.033 660.88,574.68 678.928,571.981ZM587.79,683.802C606.941,673.873 624.359,659.601 639.308,641.941C625.165,644.316 609.08,646.477 591.583,648.124C589.432,652.236 587.202,656.152 584.898,659.859C578.307,670.465 571.101,679.364 563.427,686.286C572.17,685.655 580.291,684.816 587.79,683.802ZM642.805,637.692C657.018,619.928 668.82,599.007 677.523,575.82C659.517,578.454 638.41,580.748 615.086,582.46C609.592,605.796 602.262,626.722 593.522,644.319C611.754,642.547 628.39,640.221 642.805,637.692ZM547.02,697.651C557.523,695.837 567.722,692.792 577.525,688.634C571.6,689.263 565.347,689.79 558.766,690.2C554.949,693.174 551.028,695.668 547.02,697.651ZM470.666,688.619C480.48,692.785 490.691,695.835 501.207,697.651C497.2,695.668 493.28,693.175 489.464,690.202C482.835,689.789 476.575,689.257 470.666,688.619ZM354.353,496.673C355.809,523.334 361.001,548.689 369.261,571.876C387.286,574.593 408.611,576.965 432.285,578.738C427.125,555.77 423.727,530.563 422.483,503.968C396.699,502.071 373.62,499.545 354.353,496.673ZM370.665,575.717C379.367,598.933 391.175,619.88 405.4,637.664C419.814,640.197 436.456,642.528 454.698,644.305C445.955,626.699 438.623,605.76 433.129,582.41C409.769,580.681 388.65,578.368 370.665,575.717ZM408.897,641.915C423.807,659.535 441.176,673.786 460.271,683.716C467.776,684.768 475.934,685.633 484.792,686.278C477.121,679.357 469.918,670.461 463.329,659.859C461.022,656.148 458.79,652.228 456.637,648.11C439.13,646.46 423.039,644.294 408.897,641.915ZM429.396,420.862C426.9,440.035 425.564,460.28 425.564,481.206C425.564,487.746 425.694,494.219 425.95,500.614C444.702,501.94 464.849,502.932 485.969,503.485C485.847,496.158 485.784,488.725 485.784,481.206C485.784,461.051 486.235,441.523 487.078,422.966C466.717,422.569 447.344,421.851 429.396,420.862ZM516.039,263.527C500.753,266.3 486.505,276.871 474.019,293.329C482.886,293.923 492.583,294.363 502.852,294.621C503.748,291.194 504.67,287.996 505.615,285.038C508.724,275.318 512.125,268.153 515.663,263.961C515.788,263.813 515.913,263.668 516.039,263.527ZM471.503,296.758C469.763,299.21 468.059,301.778 466.394,304.457C459.347,315.796 453.006,329.115 447.539,344.038C461.866,344.54 477.334,344.904 493.593,345.109C495.954,326.988 498.774,311.14 501.945,298.205C491.05,297.917 480.802,297.422 471.503,296.758ZM446.263,347.597C439.019,368.228 433.416,391.772 429.877,417.285C447.729,418.262 466.997,418.97 487.247,419.361C488.499,393.548 490.514,369.683 493.133,348.711C476.566,348.498 460.821,348.118 446.263,347.597ZM618.35,417.285C614.811,391.772 609.208,368.228 601.964,347.597C587.406,348.118 571.661,348.498 555.094,348.711C557.713,369.683 559.728,393.548 560.98,419.361C581.23,418.97 600.498,418.262 618.35,417.285ZM600.688,344.038C595.221,329.115 588.88,315.796 581.833,304.457C580.168,301.778 578.464,299.21 576.723,296.758C567.425,297.422 557.177,297.917 546.282,298.205C549.453,311.14 552.273,326.988 554.634,345.109C570.893,344.904 586.36,344.54 600.688,344.038ZM574.208,293.329C561.722,276.871 547.474,266.3 532.188,263.527C532.314,263.668 532.439,263.813 532.564,263.961C536.102,268.153 539.503,275.318 542.612,285.038C543.557,287.996 544.479,291.194 545.375,294.621C555.644,294.363 565.341,293.923 574.208,293.329ZM622.277,500.614C622.533,494.219 622.663,487.746 622.663,481.206C622.663,460.28 621.327,440.035 618.831,420.862C600.883,421.851 581.51,422.569 561.149,422.966C561.992,441.523 562.443,461.051 562.443,481.206C562.443,488.725 562.38,496.158 562.258,503.485C583.378,502.932 603.525,501.94 622.277,500.614ZM612.182,579.06C617.408,556.116 620.851,530.88 622.119,504.229C603.38,505.552 583.267,506.543 562.192,507.095C561.675,533.667 560.371,558.805 558.427,581.643C577.261,581.148 595.291,580.257 612.182,579.06ZM557.454,686.678C566.226,679.628 574.413,669.892 581.833,657.954C583.703,654.945 585.524,651.796 587.291,648.515C575.185,649.581 562.439,650.396 549.225,650.863C547.194,661.068 544.977,669.976 542.612,677.373C541.415,681.116 540.174,684.48 538.899,687.442C545.352,687.286 551.537,687.029 557.454,686.678ZM589.283,644.718C598.226,627.211 605.72,606.224 611.326,582.73C594.579,583.902 576.735,584.775 558.112,585.26C556.017,608.783 553.235,629.763 549.931,647.227C563.626,646.728 576.807,645.855 589.283,644.718ZM532.188,698.884C539.072,697.636 545.745,694.805 552.142,690.568C547.33,690.803 542.353,690.978 537.211,691.088C535.699,694.111 534.145,696.578 532.564,698.451C532.439,698.599 532.314,698.743 532.188,698.884ZM496.087,690.569C502.483,694.806 509.156,697.636 516.039,698.884C515.913,698.743 515.788,698.599 515.663,698.451C514.081,696.577 512.527,694.109 511.015,691.085C505.853,690.976 500.879,690.802 496.087,690.569ZM426.108,504.229C427.375,530.862 430.815,556.081 436.034,579.012C452.921,580.219 470.954,581.12 489.799,581.625C487.855,558.792 486.552,533.66 486.034,507.095C464.96,506.543 444.846,505.552 426.108,504.229ZM436.889,582.682C442.496,606.19 449.991,627.189 458.937,644.705C471.414,645.845 484.597,646.72 498.295,647.222C494.99,629.755 492.209,608.77 490.113,585.243C471.48,584.747 453.633,583.864 436.889,582.682ZM460.929,648.502C462.699,651.788 464.521,654.941 466.394,657.954C473.812,669.889 481.998,679.624 490.767,686.673C496.656,687.024 502.839,687.282 509.326,687.438C508.052,684.477 506.812,681.114 505.615,677.373C503.249,669.974 501.032,661.065 499.001,650.858C485.784,650.388 473.036,649.571 460.929,648.502ZM490.683,423.032C489.842,441.563 489.393,461.07 489.393,481.206C489.393,488.757 489.457,496.219 489.58,503.575C500.845,503.841 512.377,503.983 524.113,503.983C535.85,503.983 547.382,503.841 558.647,503.575C558.77,496.219 558.834,488.757 558.834,481.206C558.834,461.07 558.385,441.563 557.544,423.032C546.651,423.223 535.485,423.322 524.113,423.322C512.742,423.322 501.576,423.223 490.683,423.032ZM541.667,294.705C540.857,291.659 540.025,288.8 539.174,286.138C536.252,277.001 533.132,270.229 529.806,266.289C527.94,264.078 526.086,262.798 524.113,262.798C522.141,262.798 520.287,264.078 518.421,266.289C515.095,270.229 511.975,277.001 509.053,286.138C508.202,288.8 507.37,291.659 506.56,294.705C512.263,294.822 518.128,294.883 524.113,294.883C530.099,294.883 535.964,294.822 541.667,294.705ZM505.636,298.293C502.434,311.155 499.591,326.993 497.213,345.151C505.978,345.248 514.963,345.298 524.113,345.298C533.264,345.298 542.249,345.248 551.014,345.151C548.636,326.993 545.792,311.155 542.59,298.293C536.596,298.424 530.421,298.493 524.113,298.493C517.806,298.493 511.631,298.424 505.636,298.293ZM496.752,348.755C494.124,369.701 492.105,393.579 490.852,419.427C501.69,419.615 512.799,419.713 524.113,419.713C535.427,419.713 546.536,419.615 557.375,419.427C556.122,393.579 554.103,369.701 551.475,348.755C542.563,348.855 533.424,348.907 524.113,348.907C514.803,348.907 505.664,348.855 496.752,348.755ZM554.808,581.733C556.757,558.916 558.063,533.775 558.582,507.185C547.336,507.451 535.826,507.592 524.113,507.592C512.401,507.592 500.891,507.451 489.645,507.185C490.164,533.768 491.469,558.905 493.418,581.717C503.552,581.96 513.912,582.089 524.447,582.089C534.75,582.089 544.887,581.966 554.808,581.733ZM534.93,687.524C536.389,684.326 537.803,680.56 539.174,676.274C541.443,669.178 543.572,660.685 545.529,650.984C538.53,651.196 531.406,651.308 524.181,651.308C516.909,651.308 509.739,651.194 502.697,650.98C504.655,660.683 506.784,669.177 509.053,676.274C510.423,680.559 511.837,684.323 513.296,687.52C516.879,687.582 520.552,687.614 524.318,687.614C527.929,687.614 531.467,687.583 534.93,687.524ZM546.243,647.352C549.579,629.944 552.383,608.943 554.492,585.35C544.67,585.578 534.64,585.698 524.447,585.698C514.022,585.698 503.768,585.572 493.734,585.334C495.843,608.931 498.647,629.936 501.983,647.348C509.253,647.576 516.662,647.699 524.181,647.699C531.653,647.699 539.016,647.578 546.243,647.352ZM515.11,691.158C516.19,693.126 517.294,694.787 518.421,696.123C520.287,698.333 522.141,699.614 524.113,699.614C526.086,699.614 527.94,698.333 529.806,696.123C530.933,694.788 532.036,693.128 533.116,691.161C530.233,691.202 527.3,691.223 524.318,691.223C521.186,691.223 518.117,691.201 515.11,691.158Z" style="fill: url(#_Radial3);"></path><path transform="matrix(1,0,0,1,-1079.68,-58.9891)" d="M1816.51,522.819C1822.22,600.507 1795.49,672.8 1747.66,726.966C1722.47,755.494 1691.25,778.559 1656.12,794.666C1621.82,810.394 1583.56,818.517 1543.51,819.407C1519.72,818.975 1496.54,816.174 1474.55,810.128C1421.7,795.596 1375,766.227 1339.78,726.548C1291.88,672.583 1265.02,600.412 1270.51,522.819C1275.7,596.237 1310.03,659.936 1361.24,705.094C1381.31,722.796 1404,737.245 1428.61,748.39C1446.47,756.477 1465.36,762.413 1485,766.522C1503.86,770.468 1523.41,772.596 1543.51,772.231C1577.48,772.985 1609.87,766.679 1639.86,755.495C1671.5,743.698 1700.44,726.683 1725.37,704.676C1776.51,659.517 1811.12,596.17 1816.51,522.819Z" style="fill: url(#_Linear4);"></path><path transform="matrix(1,0,0,1,-1079.68,-58.9891)" d="M1816.51,522.819C1822.22,600.507 1795.49,672.8 1747.66,726.966C1722.47,755.494 1691.25,778.559 1656.12,794.666C1621.82,810.394 1583.56,818.517 1543.51,819.407C1519.72,818.975 1496.54,816.174 1474.55,810.128C1421.7,795.596 1377.3,764.065 1339.78,726.548C1262.85,649.615 1270.51,522.819 1270.51,522.819C1271.37,623.222 1348.54,808.125 1543.51,796.231C1738.48,784.336 1829.79,609.503 1816.51,522.819Z" style="fill: url(#_Linear5);"></path><path transform="matrix(1,0,0,1,-1088,0)" d="M1822.66,436.635C1807.44,426.325 1797.43,408.895 1797.43,389.145C1797.43,367.946 1808.97,349.42 1826.09,339.502C1843.22,349.42 1854.75,367.946 1854.75,389.145C1854.75,408.991 1844.65,426.495 1829.3,436.785C1829.02,429.012 1828.55,419.818 1828.07,410.704C1826.94,389.114 1825.59,368.157 1825.59,368.157C1825.59,368.157 1824.48,389.128 1823.6,410.73C1823.23,419.775 1822.86,428.9 1822.66,436.635Z" style="fill: url(#_Linear6);"></path><path transform="matrix(1,0,0,1,-1088,0)" d="M1785.1,352.903C1769.93,349.087 1756.74,338.32 1750.47,322.715C1743.49,305.363 1746.84,286.405 1757.6,272.653C1774.88,275.136 1790.41,286.507 1797.39,303.859C1804,320.316 1801.33,338.219 1791.86,351.754C1791.46,348.827 1790.81,345.772 1790,342.562C1788.28,335.783 1785.7,328.344 1782.08,320.074C1777.99,310.753 1772.56,300.454 1765.59,288.824C1772.45,303.841 1777.13,316.673 1780.29,327.821C1782.34,335.069 1783.68,341.559 1784.5,347.458C1784.76,349.334 1784.94,351.149 1785.1,352.903Z" style="fill: url(#_Linear7);"></path><path transform="matrix(2.81544,2.06344,-2.06344,2.81544,-3769.13,-4034.42)" d="M1783.44,351.009C1768.28,347.192 1756.74,338.32 1750.47,322.715C1740.6,298.154 1749.21,282.86 1742.14,273.208C1741.81,272.757 1744.76,268.803 1744.76,268.803C1744.76,268.803 1790.85,287.579 1797.39,303.859C1805.94,325.147 1798.38,347.798 1791.99,356C1794.73,342.422 1789.76,311.337 1765.69,291.709C1785.67,313.66 1787.8,348.66 1787.8,348.66C1787.8,348.66 1783.63,350.894 1783.44,351.009Z" style="fill: url(#_Linear8);"></path><path transform="matrix(2.81544,2.06344,-2.06344,2.81544,-3753.13,-4041.42)" d="M1785.1,352.903C1769.93,349.087 1756.74,338.32 1750.47,322.715C1743.49,305.363 1750.93,284.712 1742.14,273.208C1764.81,268.187 1790.41,286.507 1797.39,303.859C1805.94,325.147 1796.16,351.914 1789.76,360.116C1797.04,350.054 1789.76,311.337 1765.69,291.709C1789.12,317.455 1786.36,352.127 1785.1,352.903Z" style="fill: url(#_Radial9);"></path><path transform="matrix(1,0,0,1,-1088,0)" d="M1728.62,272.363C1717.45,273.751 1705.77,270.158 1697.19,261.585C1687.3,251.696 1684.04,237.674 1687.4,225.058C1700.02,221.694 1714.04,224.957 1723.93,234.846C1733.07,243.986 1736.55,256.658 1734.37,268.486C1734.3,268.383 1734.24,268.279 1734.17,268.175C1732.87,266.145 1731.21,264.08 1729.4,261.952C1725.91,257.829 1721.76,253.588 1717.5,249.681C1709.63,242.462 1701.55,236.509 1696.92,234.824C1700.17,236.627 1704.94,241.218 1710.01,246.938C1714.24,251.708 1718.58,257.238 1722.34,262.586C1723.92,264.832 1725.37,267.041 1726.69,269.123C1727.4,270.233 1728.01,271.341 1728.62,272.363Z" style="fill: url(#_Linear10);"></path><path transform="matrix(1,0,0,1,-1088,0)" d="M1594.7,554.836C1590.18,530.452 1590.76,504.729 1597.3,479.141C1613.47,415.898 1677.01,373.091 1676.01,322.57C1718.85,341.425 1748.39,384.204 1762.58,429.168C1751.63,459.422 1733.24,486.129 1709.63,507.081C1712.47,479.38 1711.26,450.669 1704.15,423.262C1707.79,457.533 1704.02,489.479 1696.62,517.651C1667.8,539.05 1632.74,552.523 1594.7,554.836Z" style="fill: url(#_Radial11);"></path><path transform="matrix(1,0,0,1,-1088,0)" d="M1631.25,634.059C1597.33,592.167 1582.93,535.328 1597.3,479.141C1613.47,415.898 1677.01,373.091 1676.01,322.57C1676.5,322.788 1676.99,323.009 1677.49,323.233C1694.99,355.003 1667.83,409.57 1635.31,479.679C1595.78,564.899 1630.64,630.011 1633.76,633.674C1633.38,633.641 1632.52,633.778 1631.25,634.059ZM1633.76,633.674C1633.9,633.687 1633.98,633.725 1633.98,633.788C1633.98,633.881 1633.9,633.841 1633.76,633.674Z" style="fill: url(#_Radial12);"></path><path transform="matrix(1,0,0,1,-1088,2)" d="M1615.71,633.788C1580.93,591.767 1566.76,542.992 1581.3,486.141C1604.19,396.623 1660.01,371.341 1660.01,329.57C1660.01,328.796 1666.05,326.81 1669.17,325.57C1672.69,380.021 1582.64,418.77 1582.64,526.24C1582.64,591.574 1615.98,633.574 1615.98,633.574L1615.71,633.788Z" style="fill: url(#_Linear13);"></path><path transform="matrix(1,0,0,1,-1088,0)" d="M1678.07,323.5C1750.84,357.16 1784.33,460.212 1768.31,522.867C1750.01,594.447 1678.13,646.941 1639.69,662.416C1677.62,639.906 1735.77,592.492 1740.64,521.24C1748.74,402.905 1686.31,332.278 1678.07,323.5Z" style="fill: url(#_Radial14);"></path><path transform="matrix(1,0,0,1,-1088,0)" d="M1622.31,604.177C1617.01,585.395 1615.7,566.821 1617.14,548.649C1617.78,540.627 1618.94,532.683 1620.54,524.839C1623.53,510.111 1627.99,495.72 1633.22,481.81C1636.76,472.375 1640.68,463.166 1644.68,454.203C1651.03,440.003 1657.64,426.431 1663.54,413.592C1674.59,389.527 1683.16,368.058 1682.97,349.927C1683.5,368.098 1675.38,389.808 1664.69,414.109C1659,427.037 1652.6,440.702 1646.38,454.954C1642.47,463.92 1638.64,473.122 1635.09,482.515C1629.86,496.329 1625.26,510.566 1622.09,525.166C1620.4,532.935 1619.11,540.8 1618.33,548.754C1616.56,566.83 1617.42,585.355 1622.31,604.177Z" style="fill: rgb(253,247,168); fill-opacity: 0.19;"></path><path transform="matrix(1,0,0,1,-1088,0)" d="M1677.17,322.57C1693.06,335.769 1711.48,367.201 1724.74,403.002C1731.29,420.683 1736.59,439.428 1739.71,457.543C1741.97,470.637 1743.06,483.406 1742.75,495.2C1741.91,522.768 1737.87,545.132 1730.78,564.107C1722.14,587.219 1709.01,605.294 1691.81,621.677C1708.68,605.089 1721.46,586.872 1729.76,563.732C1736.55,544.79 1740.35,522.546 1740.87,495.154C1741.14,483.476 1739.95,470.849 1737.75,457.88C1734.68,439.858 1729.59,421.187 1723.29,403.528C1710.5,367.672 1692.8,335.988 1677.17,322.57Z" style="fill: rgb(253,247,168); fill-opacity: 0.19;"></path><radialGradient id="_Radial1" cx="0" cy="0" r="1" gradientUnits="userSpaceOnUse" gradientTransform="matrix(66.1548,289.041,-289.041,66.1548,489.322,415.288)" style=""><stop offset="0" style="stop-color: rgb(235,235,235); stop-opacity: 1;"></stop><stop offset="0.72" style="stop-color: rgb(49,196,236); stop-opacity: 1;"></stop><stop offset="0.89" style="stop-color: rgb(0,77,195); stop-opacity: 1;"></stop><stop offset="1" style="stop-color: rgb(49,196,236); stop-opacity: 1;"></stop></radialGradient><radialGradient id="_Radial2" cx="0" cy="0" r="1" gradientUnits="userSpaceOnUse" gradientTransform="matrix(-58.9395,219.965,-222.807,-59.7009,503.062,418.79)" style=""><stop offset="0" style="stop-color: rgb(0,179,240); stop-opacity: 1;"></stop><stop offset="1" style="stop-color: rgb(28,46,127); stop-opacity: 1;"></stop></radialGradient><radialGradient id="_Radial3" cx="0" cy="0" r="1" gradientUnits="userSpaceOnUse" gradientTransform="matrix(99.3876,293.804,-293.804,99.3876,471.544,414.666)" style=""><stop offset="0" style="stop-color: rgb(0,174,239); stop-opacity: 1;"></stop><stop offset="0.87" style="stop-color: rgb(35,28,111); stop-opacity: 1;"></stop><stop offset="1" style="stop-color: rgb(0,174,239); stop-opacity: 1;"></stop></radialGradient><linearGradient id="_Linear4" x1="0" y1="0" x2="1" y2="0" gradientUnits="userSpaceOnUse" gradientTransform="matrix(1.68711e-14,275.526,-275.526,1.68711e-14,1664.99,540.813)" style=""><stop offset="0" style="stop-color: rgb(150,196,61); stop-opacity: 1;"></stop><stop offset="0.56" style="stop-color: rgb(124,177,59); stop-opacity: 1;"></stop><stop offset="1" style="stop-color: rgb(21,102,52); stop-opacity: 1;"></stop></linearGradient><linearGradient id="_Linear5" x1="0" y1="0" x2="1" y2="0" gradientUnits="userSpaceOnUse" gradientTransform="matrix(-6.66667,328.859,-328.859,-6.66667,1664.99,434.146)" style=""><stop offset="0" style="stop-color: rgb(150,196,61); stop-opacity: 1;"></stop><stop offset="0.56" style="stop-color: rgb(124,177,59); stop-opacity: 1;"></stop><stop offset="1" style="stop-color: rgb(21,102,52); stop-opacity: 1;"></stop></linearGradient><linearGradient id="_Linear6" x1="0" y1="0" x2="1" y2="0" gradientUnits="userSpaceOnUse" gradientTransform="matrix(7.18386e-15,117.321,-117.321,7.18386e-15,1826.09,339.502)" style=""><stop offset="0" style="stop-color: rgb(150,196,61); stop-opacity: 1;"></stop><stop offset="0.56" style="stop-color: rgb(124,177,59); stop-opacity: 1;"></stop><stop offset="1" style="stop-color: rgb(21,102,52); stop-opacity: 1;"></stop></linearGradient><linearGradient id="_Linear7" x1="0" y1="0" x2="1" y2="0" gradientUnits="userSpaceOnUse" gradientTransform="matrix(28.0482,80.2508,-80.2508,28.0482,1757.26,272.653)" style=""><stop offset="0" style="stop-color: rgb(150,196,61); stop-opacity: 1;"></stop><stop offset="0.56" style="stop-color: rgb(124,177,59); stop-opacity: 1;"></stop><stop offset="1" style="stop-color: rgb(21,102,52); stop-opacity: 1;"></stop></linearGradient><linearGradient id="_Linear8" x1="0" y1="0" x2="1" y2="0" gradientUnits="userSpaceOnUse" gradientTransform="matrix(58.0787,79.245,-79.245,58.0787,1744.92,268.683)" style=""><stop offset="0" style="stop-color: rgb(138,140,142); stop-opacity: 1;"></stop><stop offset="0.43" style="stop-color: white; stop-opacity: 1;"></stop><stop offset="1" style="stop-color: rgb(0,0,5); stop-opacity: 1;"></stop></linearGradient><radialGradient id="_Radial9" cx="0" cy="0" r="1" gradientUnits="userSpaceOnUse" gradientTransform="matrix(39.5072,42.2538,-42.2538,39.5072,1752.34,302.776)" style=""><stop offset="0" style="stop-color: rgb(150,196,61); stop-opacity: 1;"></stop><stop offset="0.56" style="stop-color: rgb(124,177,59); stop-opacity: 1;"></stop><stop offset="1" style="stop-color: rgb(21,102,52); stop-opacity: 1;"></stop></radialGradient><linearGradient id="_Linear10" x1="0" y1="0" x2="1" y2="0" gradientUnits="userSpaceOnUse" gradientTransform="matrix(48.8752,48.8752,-48.8752,48.8752,1686.12,223.777)" style=""><stop offset="0" style="stop-color: rgb(150,196,61); stop-opacity: 1;"></stop><stop offset="0.56" style="stop-color: rgb(124,177,59); stop-opacity: 1;"></stop><stop offset="1" style="stop-color: rgb(21,102,52); stop-opacity: 1;"></stop></linearGradient><radialGradient id="_Radial11" cx="0" cy="0" r="1" gradientUnits="userSpaceOnUse" gradientTransform="matrix(1.31448e-14,-214.67,214.67,1.31448e-14,1627.98,537.24)" style=""><stop offset="0" style="stop-color: rgb(150,196,61); stop-opacity: 1;"></stop><stop offset="0.56" style="stop-color: rgb(124,177,59); stop-opacity: 1;"></stop><stop offset="1" style="stop-color: rgb(21,102,52); stop-opacity: 1;"></stop></radialGradient><radialGradient id="_Radial12" cx="0" cy="0" r="1" gradientUnits="userSpaceOnUse" gradientTransform="matrix(1.80023e-14,294,-294,1.80023e-14,1677.17,350.574)" style=""><stop offset="0" style="stop-color: rgb(150,196,61); stop-opacity: 1;"></stop><stop offset="0.56" style="stop-color: rgb(124,177,59); stop-opacity: 1;"></stop><stop offset="1" style="stop-color: rgb(21,102,52); stop-opacity: 1;"></stop></radialGradient><linearGradient id="_Linear13" x1="0" y1="0" x2="1" y2="0" gradientUnits="userSpaceOnUse" gradientTransform="matrix(15.3333,-326,326,15.3333,1649.49,599.574)" style=""><stop offset="0" style="stop-color: rgb(138,140,142); stop-opacity: 1;"></stop><stop offset="0.25" style="stop-color: white; stop-opacity: 1;"></stop><stop offset="1" style="stop-color: rgb(0,0,5); stop-opacity: 1;"></stop></linearGradient><radialGradient id="_Radial14" cx="0" cy="0" r="1" gradientUnits="userSpaceOnUse" gradientTransform="matrix(2.40751e-14,393.176,-393.176,2.40751e-14,1710.56,284.427)" style=""><stop offset="0" style="stop-color: rgb(150,196,61); stop-opacity: 1;"></stop><stop offset="0.31" style="stop-color: rgb(132,183,60); stop-opacity: 1;"></stop><stop offset="0.54" style="stop-color: rgb(63,133,55); stop-opacity: 1;"></stop><stop offset="1" style="stop-color: rgb(119,173,59); stop-opacity: 1;"></stop></radialGradient></svg> <svg y="327.76799776762545" viewBox="0.7899999618530273 4.690000057220459 132.13999938964844 20.03999900817871" x="398.54497016229845" height="20.03999900817871" width="132.13999938964844" style="overflow: visible;"><g fill="#397e05" fill-opacity="1" style=""><path d="M5.80 24.47L7.11 18.80L10.83 5.72L12.64 5.72L11.59 10.81L7.59 24.47L5.80 24.47ZM0.79 5.72L3.26 5.72L6.22 18.55L7.11 24.47L5.33 24.47L0.79 5.72ZM16.52 24.47L17.45 18.53L20.35 5.72L22.84 5.72L18.30 24.47L16.52 24.47ZM11.13 5.72L12.91 5.72L16.52 18.80L17.84 24.47L16.05 24.47L12.18 10.81L11.13 5.72ZM24.59 17.66L24.59 17.66L24.59 17.36Q24.59 15.85 25.03 14.56Q25.46 13.27 26.29 12.31Q27.11 11.35 28.28 10.81Q29.46 10.28 30.91 10.28L30.91 10.28Q32.38 10.28 33.56 10.81Q34.74 11.35 35.57 12.31Q36.40 13.27 36.84 14.56Q37.27 15.85 37.27 17.36L37.27 17.36L37.27 17.66Q37.27 19.17 36.84 20.45Q36.40 21.74 35.57 22.70Q34.74 23.66 33.57 24.19Q32.41 24.73 30.94 24.73L30.94 24.73Q29.47 24.73 28.30 24.19Q27.12 23.66 26.29 22.70Q25.46 21.74 25.03 20.45Q24.59 19.17 24.59 17.66ZM26.97 17.36L26.97 17.36L26.97 17.66Q26.97 18.70 27.21 19.62Q27.46 20.54 27.96 21.25Q28.45 21.96 29.20 22.37Q29.95 22.77 30.94 22.77L30.94 22.77Q31.92 22.77 32.66 22.37Q33.40 21.96 33.89 21.25Q34.38 20.54 34.63 19.62Q34.88 18.70 34.88 17.66L34.88 17.66L34.88 17.36Q34.88 16.33 34.63 15.41Q34.38 14.49 33.88 13.77Q33.38 13.06 32.64 12.65Q31.90 12.24 30.91 12.24L30.91 12.24Q29.93 12.24 29.19 12.65Q28.45 13.06 27.96 13.77Q27.46 14.49 27.21 15.41Q26.97 16.33 26.97 17.36ZM42.58 10.54L42.64 12.73L42.64 24.47L40.26 24.47L40.26 10.54L42.58 10.54ZM47.00 10.46L47.00 10.46L46.99 12.67Q46.69 12.61 46.43 12.59Q46.16 12.57 45.83 12.57L45.83 12.57Q45.00 12.57 44.37 12.83Q43.74 13.09 43.30 13.55Q42.86 14.01 42.61 14.65Q42.36 15.29 42.28 16.05L42.28 16.05L41.61 16.43Q41.61 15.17 41.87 14.06Q42.12 12.96 42.64 12.10Q43.17 11.24 43.99 10.76Q44.81 10.28 45.94 10.28L45.94 10.28Q46.20 10.28 46.53 10.34Q46.87 10.39 47.00 10.46ZM49.39 4.69L51.79 4.69L51.79 24.47L49.39 24.47L49.39 4.69ZM64.60 24.47L64.40 21.77L64.40 4.69L66.79 4.69L66.79 24.47L64.60 24.47ZM55.02 17.66L55.02 17.66L55.02 17.39Q55.02 15.79 55.42 14.48Q55.81 13.18 56.54 12.24Q57.26 11.30 58.27 10.79Q59.29 10.28 60.53 10.28L60.53 10.28Q61.85 10.28 62.83 10.74Q63.82 11.19 64.51 12.06Q65.20 12.93 65.60 14.15Q66.00 15.38 66.15 16.92L66.15 16.92L66.15 18.11Q66.01 19.64 65.60 20.87Q65.20 22.09 64.51 22.95Q63.82 23.81 62.83 24.27Q61.84 24.73 60.51 24.73L60.51 24.73Q59.29 24.73 58.27 24.20Q57.26 23.67 56.54 22.72Q55.81 21.77 55.42 20.47Q55.02 19.18 55.02 17.66ZM57.42 17.39L57.42 17.39L57.42 17.66Q57.42 18.70 57.63 19.62Q57.84 20.53 58.29 21.23Q58.74 21.92 59.44 22.31Q60.14 22.71 61.10 22.71L61.10 22.71Q62.29 22.71 63.05 22.20Q63.82 21.70 64.28 20.88Q64.75 20.05 65.00 19.09L65.00 19.09L65.00 15.98Q64.85 15.28 64.56 14.61Q64.27 13.95 63.81 13.43Q63.36 12.91 62.69 12.60Q62.03 12.29 61.13 12.29L61.13 12.29Q60.15 12.29 59.45 12.69Q58.74 13.10 58.29 13.80Q57.84 14.50 57.63 15.42Q57.42 16.34 57.42 17.39ZM81.01 24.47L82.33 18.80L86.05 5.72L87.85 5.72L86.81 10.81L82.80 24.47L81.01 24.47ZM76.00 5.72L78.48 5.72L81.44 18.55L82.33 24.47L80.55 24.47L76.00 5.72ZM91.74 24.47L92.67 18.53L95.57 5.72L98.05 5.72L93.52 24.47L91.74 24.47ZM86.35 5.72L88.12 5.72L91.74 18.80L93.06 24.47L91.27 24.47L87.40 10.81L86.35 5.72ZM100.63 10.54L103.03 10.54L103.03 24.47L100.63 24.47L100.63 10.54ZM100.45 6.84L100.45 6.84Q100.45 6.26 100.80 5.86Q101.16 5.46 101.85 5.46L101.85 5.46Q102.54 5.46 102.90 5.86Q103.27 6.26 103.27 6.84L103.27 6.84Q103.27 7.39 102.90 7.79Q102.54 8.18 101.85 8.18L101.85 8.18Q101.16 8.18 100.80 7.79Q100.45 7.39 100.45 6.84ZM115.84 24.47L115.63 21.77L115.63 4.69L118.03 4.69L118.03 24.47L115.84 24.47ZM106.26 17.66L106.26 17.66L106.26 17.39Q106.26 15.79 106.65 14.48Q107.04 13.18 107.77 12.24Q108.50 11.30 109.51 10.79Q110.52 10.28 111.77 10.28L111.77 10.28Q113.08 10.28 114.07 10.74Q115.05 11.19 115.74 12.06Q116.43 12.93 116.83 14.15Q117.23 15.38 117.39 16.92L117.39 16.92L117.39 18.11Q117.24 19.64 116.84 20.87Q116.43 22.09 115.74 22.95Q115.05 23.81 114.06 24.27Q113.07 24.73 111.74 24.73L111.74 24.73Q110.52 24.73 109.51 24.20Q108.50 23.67 107.77 22.72Q107.04 21.77 106.65 20.47Q106.26 19.18 106.26 17.66ZM108.65 17.39L108.65 17.39L108.65 17.66Q108.65 18.70 108.87 19.62Q109.08 20.53 109.53 21.23Q109.98 21.92 110.68 22.31Q111.37 22.71 112.34 22.71L112.34 22.71Q113.52 22.71 114.29 22.20Q115.05 21.70 115.52 20.88Q115.98 20.05 116.24 19.09L116.24 19.09L116.24 15.98Q116.09 15.28 115.80 14.61Q115.51 13.95 115.05 13.43Q114.59 12.91 113.93 12.60Q113.26 12.29 112.36 12.29L112.36 12.29Q111.38 12.29 110.68 12.69Q109.98 13.10 109.53 13.80Q109.08 14.50 108.87 15.42Q108.65 16.34 108.65 17.39ZM127.51 24.73L127.51 24.73Q126.05 24.73 124.88 24.23Q123.70 23.74 122.85 22.84Q122.01 21.93 121.56 20.70Q121.11 19.46 121.11 17.99L121.11 17.99L121.11 17.45Q121.11 15.75 121.61 14.42Q122.11 13.09 122.98 12.16Q123.84 11.23 124.93 10.75Q126.03 10.28 127.20 10.28L127.20 10.28Q128.69 10.28 129.78 10.79Q130.87 11.31 131.57 12.23Q132.26 13.15 132.60 14.39Q132.93 15.64 132.93 17.10L132.93 17.10L132.93 18.17L122.53 18.17L122.53 16.23L130.55 16.23L130.55 16.05Q130.50 15.12 130.17 14.25Q129.84 13.37 129.13 12.80Q128.42 12.24 127.20 12.24L127.20 12.24Q126.39 12.24 125.71 12.58Q125.02 12.92 124.53 13.59Q124.05 14.26 123.77 15.22Q123.50 16.19 123.50 17.45L123.50 17.45L123.50 17.99Q123.50 18.98 123.78 19.85Q124.06 20.72 124.59 21.38Q125.13 22.04 125.89 22.41Q126.66 22.78 127.64 22.78L127.64 22.78Q128.90 22.78 129.78 22.27Q130.65 21.75 131.31 20.89L131.31 20.89L132.75 22.04Q132.30 22.72 131.61 23.34Q130.91 23.96 129.90 24.34Q128.89 24.73 127.51 24.73Z" transform="translate(0, 0)"></path></g></svg> <svg y="258.865" viewBox="1.309999942779541 23.8700008392334 228.4600067138672 57.519996643066406" x="310.364990234375" height="57.519996643066406" width="228.4600067138672" style="overflow: visible;"><g fill="#0e2d64" fill-opacity="1" style=""><path d="M1.31 26.56L45.20 26.56L45.20 38.58L30.72 38.58L30.72 80.85L15.63 80.85L15.63 38.58L1.31 38.58L1.31 26.56ZM65.91 45.28Q68.45 41.58 72.07 39.42Q75.69 37.27 79.85 37.27L79.85 37.27L79.85 53.36L75.61 53.36Q70.69 53.36 68.30 55.29Q65.91 57.21 65.91 61.98L65.91 61.98L65.91 80.85L50.82 80.85L50.82 37.65L65.91 37.65L65.91 45.28ZM82.77 59.21Q82.77 52.51 85.20 47.51Q87.63 42.50 91.82 39.81Q96.02 37.11 101.18 37.11L101.18 37.11Q105.64 37.11 108.88 38.88Q112.11 40.66 113.88 43.66L113.88 43.66L113.88 37.65L128.97 37.65L128.97 80.85L113.88 80.85L113.88 74.84Q112.11 77.85 108.84 79.62Q105.57 81.39 101.18 81.39L101.18 81.39Q96.02 81.39 91.82 78.69Q87.63 76.00 85.20 70.96Q82.77 65.91 82.77 59.21L82.77 59.21ZM113.88 59.21Q113.88 55.05 111.61 52.67Q109.34 50.28 106.03 50.28L106.03 50.28Q102.64 50.28 100.41 52.63Q98.17 54.98 98.17 59.21L98.17 59.21Q98.17 63.37 100.41 65.80Q102.64 68.22 106.03 68.22L106.03 68.22Q109.34 68.22 111.61 65.83Q113.88 63.45 113.88 59.21L113.88 59.21ZM135.13 59.21Q135.13 52.51 137.91 47.51Q140.68 42.50 145.65 39.81Q150.61 37.11 157.00 37.11L157.00 37.11Q165.24 37.11 170.86 41.62Q176.48 46.12 178.10 54.21L178.10 54.21L162.08 54.21Q160.70 49.97 156.69 49.97L156.69 49.97Q153.85 49.97 152.19 52.32Q150.53 54.67 150.53 59.21L150.53 59.21Q150.53 63.76 152.19 66.14Q153.85 68.53 156.69 68.53L156.69 68.53Q160.78 68.53 162.08 64.29L162.08 64.29L178.10 64.29Q176.48 72.30 170.86 76.85Q165.24 81.39 157.00 81.39L157.00 81.39Q150.61 81.39 145.65 78.69Q140.68 76.00 137.91 70.99Q135.13 65.99 135.13 59.21L135.13 59.21ZM229.77 80.85L211.36 80.85L199.43 63.14L199.43 80.85L184.34 80.85L184.34 23.87L199.43 23.87L199.43 54.59L211.36 37.65L229.46 37.65L212.44 59.37L229.77 80.85Z" transform="translate(0, 0)"></path></g></svg></svg>